<svg id="Layer_1" data-name="Layer 1" xmlns="http://www.w3.org/2000/svg" viewBox="0 0 1671.11 1671.11"><defs><style>.cls-1{fill:#fefffe;}.cls-2{fill:#076a38;}.cls-3{fill:#3eb54b;}.cls-4{fill:#169d49;}.cls-5{fill:#1ea44a;}.cls-6{fill:#0d9348;}.cls-7{fill:#49b74a;}.cls-8{fill:#89c543;}.cls-9{fill:#119849;}.cls-10{fill:#48b64a;}.cls-11{fill:#21a54a;}.cls-12{fill:#2eae4b;}.cls-13{fill:#7cc244;}.cls-14{fill:#0a9448;}.cls-15{fill:#49b74b;}.cls-16{fill:#199f4a;}.cls-17{fill:#57b948;}.cls-18{fill:#54b848;}.cls-19{fill:#2dac4b;}.cls-20{fill:#094f2a;}.cls-21{fill:#139a49;}.cls-22{fill:#2dad4b;}.cls-23{fill:#0e9748;}.cls-24{fill:#60bb47;}.cls-25{fill:#67bd47;}.cls-26{fill:#09502b;}.cls-27{fill:#72bf45;}.cls-28{fill:#40b44d;}.cls-29{fill:#7ac145;}.cls-30{fill:#81c344;}</style></defs><path class="cls-1" d="M1835.56,1812.22H164.44V141.11H1835.56Zm-1556-604.67q0,7.08.07,14.17-.39,20-.79,39.93l-.63,35,4.83,49.06c89.61,58.39,179.47,116.39,268.57,175.53,14.83,9.85,25.35,9,40.06.43,75.29-43.93,151.4-86.44,226.9-130,47.54-27.43,94.51-55.83,141.74-83.79a19,19,0,0,0,1.89-3.4c.14-.46-.58-1.52-1.16-1.85Q910,1274.17,858.8,1245.8q-1.8-1.3-3.61-2.6L850,1241l-47.58-27.33L755,1188.46l-76.22-42.83-39.07-27.72Q642.12,947,644.51,776c1.86-109.74,4-219.47,5-329.21.06-6.61-7.32-16.83-13.61-19.3-20-7.85-41.16-12.83-61.87-18.91-7.16,1.14-15.27.51-21.29,3.75-17.18,9.27-33.51,20.11-50.17,30.33q-28.68,18-57.35,36.1l-71.37,43L288.2,574.19q-1.81,40.65-3.62,81.29c-.3,73.75,1,147.55-1.67,221.2-1.08,29.89,6.59,48.72,34.76,60.07,12,4.82,21.91,14.71,32.77,22.32-49.57,15.48-86.45,39.77-70,101q-.21,31-.44,62ZM1335.41,860.21l-4.59-3.49c-1.53,2.18-4.4,4.38-4.39,6.56q.71,126.69,1.91,253.38c.84,29.64,2.32,59.28,2.1,88.9-.06,8.28-5.14,16.53-7.92,24.79-9.6,5.17-19.29,10.18-28.78,15.53q-131.4,74-262.75,148.14l-100.52,56.17L864.1,1488l-76.48,43.15c-7.72,3.57-15.78,6.54-23.09,10.8-38.88,22.67-34.68,22.36-30.17,66.54,4.31,42.2,28.85,59.07,63.2,70.71l66.77,36.94,71.49,38.63,95.69,51.15,213.2-117.58c5.46-2.89,10.62-6.75,16.42-8.52,57.66-17.59,82.07-55.06,69.71-115-.3-1.46.32-3.11.51-4.67,16.9,11.32,34.82,21.4,50.35,34.36,10.78,9,18.43,7.81,29.28,1.51,43.79-25.44,88-50.15,132.07-75.1q62.57-35.4,125.17-70.75c11.48-9.2,32.72-6.65,34-28.18,1.08-6.21,2.82-12.38,3.13-18.63,5-101.15,10.16-202.3,14.14-303.49.33-8.28-5.33-20.21-12-24.7-19.67-13.15-41.28-23.4-62.13-34.78L1569.68,996l-90.35-53.22-143.89-82.5ZM1029.48,161.65l-1.85,1L902.42,227.88l-100,51.94c-18.9,9.4-37.36,19.88-56.84,27.84-15,6.13-18.71,15.66-18.68,30.88.27,137.59-.14,275.18-.34,412.77a98.21,98.21,0,0,0,.72,14.16c.06.35,5.46-.08,8.38-.15Q811.94,720,888.2,674.62l71.63-42.45,81-48.16,13.59-.92q134.25,79.73,268.46,159.43L1459,823.06l80.71,48.27,76.79,46,28.28,17.73c19-17.75,37.72-33.62,54.22-51.56,6.53-7.1,11.47-18.86,11.31-28.4-1.65-94.17-4.4-188.33-7.24-282.47-.24-8.18-3.3-16.27-5-24.4-7.82-5.21-15.41-10.78-23.48-15.57q-100.41-59.61-201-119c-63.35-42.81-63.35-42.81-129.44-3.79-.49-18.15-.53-36.33-1.65-54.44-.48-7.77-.62-19.62-5.28-22.46-49.06-29.93-99-58.41-148.71-87.3l-62.17-37.94-56.89-33.47-34-14.54Z" transform="translate(-164.44 -141.11)"/><path class="cls-2" d="M644.51,776q-2.38,171-4.78,341.9l-69.61-34.64-105.77-60.84c-9-4.4-18.35-8.34-27.07-13.3-29.06-16.49-57.91-33.35-86.83-50.08-10.87-7.59-20.8-17.48-32.78-22.3-28.17-11.35-35.84-30.18-34.76-60.07,2.67-73.65,1.37-147.45,1.67-221.2,5.87,3.33,11.39,7.66,17.67,9.82,82,28.19,164,56.49,246.3,83.76,20.71,6.86,42.61,10.14,64,15.07Z" transform="translate(-164.44 -141.11)"/><path class="cls-2" d="M1322.89,742.55,1054.41,583.09l37.54-23.8c7.86-.41,16.47,1.15,23.47-1.52q165.87-63.24,331.29-127.68c9.61-3.75,17.91-10.86,26.82-16.4q100.5,59.44,201,119c8.07,4.79,15.66,10.36,23.47,15.56L1615.85,596l-80.22,40.35-76.87,40.55Z" transform="translate(-164.44 -141.11)"/><path class="cls-2" d="M1031,1394q131.37-74.08,262.75-148.14c9.49-5.35,19.18-10.36,28.77-15.52q3.71,10.25,7.45,20.47c-2.92,4.71-7.47,9.07-8.53,14.17q-42.14,202.41-83.17,405c-1.09,5.43,4.16,12.14,6.45,18.25l-213.2,117.58Q1031.24,1600,1031,1394Z" transform="translate(-164.44 -141.11)"/><path class="cls-3" d="M960.34,1307.87c-47.23,28-94.2,56.36-141.74,83.79-75.5,43.56-151.61,86.07-226.9,130-14.71,8.58-25.23,9.42-40.06-.43-89.1-59.14-179-117.14-268.56-175.53l48-5c49.6-3,99.17-6.61,148.81-9s99.59-3.32,149.38-5.31c30.77-1.22,61.52-3.14,92.27-4.88Q841,1314.74,960.34,1307.87Z" transform="translate(-164.44 -141.11)"/><path class="cls-4" d="M1702.19,1422c-1.25,21.53-22.49,19-34,28.18-12.06-3.16-24-8.35-36.22-9-13.89-.68-28,3.58-42,4.23-75.4,3.5-150.8,7.16-226.25,9.24-16.17.45-26.89,4.24-32.5,19.51V1298c41.61-1.57,83.22-3,124.82-4.82,10.12-.45,20.24-3.54,30.27-3.13,41.85,1.7,84.1-11.63,125.59,3.17l14,14.39Q1664.05,1364.78,1702.19,1422Z" transform="translate(-164.44 -141.11)"/><path class="cls-5" d="M1611.93,1293.2c-41.49-14.79-83.74-1.46-125.59-3.16-10-.41-20.15,2.68-30.27,3.13-41.6,1.82-83.21,3.25-124.82,4.82l-1.29-47.16q-3.74-10.23-7.45-20.47c2.79-8.27,7.87-16.52,7.93-24.8.22-29.62-1.26-59.26-2.1-88.9,10.26-4.6,20.94-13.9,30.71-13,46,4.17,93.62-15.15,138.23,8.8l52.39,76.22c4.42,8.19,8.51,16.58,13.32,24.54C1579.16,1240,1595.6,1266.55,1611.93,1293.2Z" transform="translate(-164.44 -141.11)"/><path class="cls-6" d="M1188.45,245.7c49.7,28.89,99.65,57.37,148.71,87.3,4.66,2.84,4.8,14.69,5.28,22.46,1.12,18.11,1.16,36.29,1.66,54.43q-15.27,8.72-30.56,17.45L1107.23,546.06c23.54-95.25,47-190.54,70.92-285.7C1179.51,255,1184.92,250.57,1188.45,245.7Z" transform="translate(-164.44 -141.11)"/><path class="cls-7" d="M1031,1394q.26,205.93.52,411.86l-95.69-51.15c0-92.6.08-185.2-.32-277.79,0-8.93-3.27-17.84-5-26.75Z" transform="translate(-164.44 -141.11)"/><path class="cls-8" d="M735.68,765.32c-2.91.07-8.31.5-8.37.15a98.21,98.21,0,0,1-.72-14.16c.2-137.59.61-275.18.34-412.77,0-15.22,3.66-24.75,18.68-30.88,19.48-8,37.94-18.44,56.84-27.84,0,101.13-.13,202.26.18,303.38,0,8.18,3,16.35,4.64,24.53-20.09,41.58-40.42,83.06-60.1,124.83C742.27,743,739.46,754.37,735.68,765.32Z" transform="translate(-164.44 -141.11)"/><path class="cls-9" d="M1331.25,1474.16c5.61-15.27,16.33-19.06,32.5-19.51,75.45-2.08,150.85-5.74,226.25-9.24,14-.65,28.11-4.91,42-4.23,12.19.6,24.16,5.79,36.22,9q-62.58,35.37-125.17,70.75c-44.07,24.95-88.28,49.66-132.07,75.1-10.85,6.3-18.5,7.48-29.28-1.51-15.53-13-33.45-23-50.35-34.35Q1331.3,1517.15,1331.25,1474.16Z" transform="translate(-164.44 -141.11)"/><path class="cls-10" d="M1615.85,596,1698,548.21c1.76,8.14,4.82,16.23,5.06,24.41,2.84,94.14,5.59,188.3,7.24,282.47.16,9.54-4.78,21.3-11.31,28.4-16.5,17.94-35.25,33.81-54.22,51.56l-28.28-17.73c1.61-48.81,4.67-97.62,4.47-146.43C1620.7,712.6,1617.67,654.32,1615.85,596Z" transform="translate(-164.44 -141.11)"/><path class="cls-11" d="M1040.81,584l-81,48.16c-.84-8.29-3.52-16.9-2.17-24.82,3.45-20.18,8.45-40.1,13.25-60,25.12-104.23,49.94-208.54,75.91-312.55,5.18-20.75,14.93-40.36,22.57-60.49l56.89,33.47c-4.7,8.68-11,16.88-13.74,26.14-5.31,18.1-8.32,36.85-12.78,55.21-21.76,89.57-44,179-65,268.75C1032.91,565.68,1038.61,575.25,1040.81,584Z" transform="translate(-164.44 -141.11)"/><path class="cls-12" d="M1069.39,174.29c-7.64,20.13-17.39,39.74-22.57,60.49-26,104-50.79,208.32-75.91,312.55-4.8,19.92-9.8,39.84-13.25,60-1.35,7.92,1.33,16.53,2.17,24.82L888.2,674.62c1.23-12.49,1-25.33,3.93-37.43C917.35,531.39,943.2,425.75,968.51,320c1.65-6.88.28-14.49.32-21.76,17.87-37.26,36-74.4,53.38-111.89,3.32-7.17,3.68-15.72,5.41-23.63,0,0,1.86-1,1.87-1l5.94-1.91Z" transform="translate(-164.44 -141.11)"/><path class="cls-3" d="M968.83,298.21c0,7.27,1.33,14.88-.32,21.76-25.31,105.78-51.16,211.42-76.38,317.22-2.89,12.1-2.7,24.94-3.93,37.43l-152.52,90.7c3.78-11,6.59-22.34,11.49-32.76,19.68-41.77,40-83.25,60.1-124.83q47.67-95.21,95.32-190.41Z" transform="translate(-164.44 -141.11)"/><path class="cls-13" d="M902.59,417.32q-47.65,95.21-95.32,190.41c-1.61-8.18-4.62-16.35-4.64-24.53-.31-101.12-.19-202.25-.18-303.38l100-51.94q0,76.89,0,153.8C902.41,393.56,902.53,405.44,902.59,417.32Z" transform="translate(-164.44 -141.11)"/><path class="cls-14" d="M960.34,1307.87q-119.39,6.81-238.76,13.62c-30.75,1.74-61.5,3.66-92.27,4.88-49.79,2-99.62,2.94-149.38,5.31s-99.21,5.93-148.81,9c7.69-6.27,14.7-16.72,23.19-18.12,49.52-8.11,99.52-13.3,149.12-21,51.95-8.11,103.59-18.23,155.46-27,23.19-3.91,46.59-6.57,69.9-9.82,33.44-4.66,66.94-9,100.27-14.31,7.3-1.18,14-6.16,21-9.39l5.16,2.19a6.28,6.28,0,0,0,3.61,2.6q51.15,28.4,102.27,56.82c.58.33,1.3,1.39,1.16,1.85A19,19,0,0,1,960.34,1307.87Z" transform="translate(-164.44 -141.11)"/><path class="cls-11" d="M570.12,1083.27l69.61,34.64,39.07,27.72c-44,7.94-87.87,16.68-132,23.61-54.26,8.52-108.78,15.43-163.16,23.25-33.41,4.8-66.77,10-100.15,15q.1-35.67.22-71.33,51.09-7.17,102.18-14.32c51.69-7.23,103.5-13.76,155-22.22C551.23,1098,560.4,1088.93,570.12,1083.27Z" transform="translate(-164.44 -141.11)"/><path class="cls-4" d="M1040.81,584c-2.2-8.76-7.9-18.33-6.06-26.15,21-89.73,43.25-179.18,65-268.75,4.46-18.36,7.47-37.11,12.78-55.21,2.72-9.26,9-17.46,13.74-26.14l62.17,37.94c-3.53,4.87-8.94,9.25-10.3,14.66-23.94,95.16-47.38,190.45-70.92,285.7L1092,559.29l-37.54,23.8Z" transform="translate(-164.44 -141.11)"/><path class="cls-10" d="M644.51,776l-32-11.88-43.79-31.29c3.31-12.75,9.36-25.48,9.49-38.26.84-86.94.57-173.89.24-260.84,0-8.39-2.9-16.77-4.45-25.15,20.71,6.08,41.85,11.06,61.87,18.91,6.29,2.47,13.67,12.69,13.61,19.3C648.48,556.54,646.37,666.27,644.51,776Z" transform="translate(-164.44 -141.11)"/><path class="cls-15" d="M1702.19,1422q-38.13-57.18-76.25-114.35c16.46,1.15,14.42-10.52,14.42-20.79,0-68.92-.26-137.84.22-206.76.09-13.24,3.06-26.46,4.7-39.7,20.85,11.38,42.46,21.63,62.13,34.78,6.72,4.49,12.38,16.42,12,24.7-4,101.19-9.12,202.34-14.14,303.49C1705,1409.57,1703.27,1415.74,1702.19,1422Z" transform="translate(-164.44 -141.11)"/><path class="cls-16" d="M283.45,1207.54c33.39-5,66.75-10.25,100.16-15,54.38-7.82,108.9-14.73,163.16-23.25,44.16-6.93,88-15.67,132-23.61L755,1188.46c-26.18,4.76-52.23,10.37-78.55,14.11-72.14,10.27-144.48,19.12-216.57,29.73-60.47,8.9-120.7,19.5-181,29.35q.39-20,.79-39.93,1.89-7.08,3.77-14.16Z" transform="translate(-164.44 -141.11)"/><path class="cls-17" d="M1615.85,596c1.82,58.29,4.85,116.57,5.09,174.86.2,48.81-2.86,97.62-4.47,146.43l-76.79-46c1.82-14,5-28,5.2-42,.64-50.71.91-101.45-.18-152.14-.29-13.65-5.9-27.19-9.07-40.78Z" transform="translate(-164.44 -141.11)"/><path class="cls-18" d="M574,408.59c1.55,8.38,4.42,16.76,4.45,25.15.33,87,.6,173.9-.24,260.84-.13,12.78-6.18,25.51-9.49,38.25L502,694.6c1.75-21.09,4.71-42.15,5-63.25.73-52.08.5-104.17,0-156.25-.1-10.82-2.92-21.62-4.49-32.43,16.67-10.22,33-21.06,50.18-30.33C558.73,409.1,566.84,409.73,574,408.59Z" transform="translate(-164.44 -141.11)"/><path class="cls-19" d="M1497.27,1112.45c-44.6-24-92.2-4.63-138.22-8.8-9.77-.89-20.45,8.41-30.71,13q-1-126.69-1.91-253.38c0-2.18,2.86-4.38,4.39-6.56l4.59,3.49,0,0c2.29,5.81,3.65,12.22,7,17.33q58.38,88.92,117.27,177.51Z" transform="translate(-164.44 -141.11)"/><path class="cls-20" d="M1331.25,1474.16q.06,43,.1,86c-.19,1.55-.81,3.2-.51,4.66,12.36,59.94-12,97.41-69.71,115-5.8,1.77-11,5.63-16.42,8.52-2.29-6.11-7.54-12.82-6.45-18.25q40.86-202.66,83.17-405c1.06-5.1,5.61-9.46,8.53-14.17l1.29,47.16Z" transform="translate(-164.44 -141.11)"/><path class="cls-21" d="M278.87,1261.65c60.33-9.85,120.56-20.45,181-29.35,72.09-10.61,144.43-19.46,216.57-29.73,26.32-3.74,52.37-9.35,78.55-14.11l47.43,25.22c-3.29,2.75-6.27,7.32-9.93,8-24,4.11-48.23,6.92-72.24,11-51.88,8.79-103.61,18.43-155.51,27.08Q425.65,1282.92,286.33,1305c-2.2.35-5.38-5.42-8.09-8.34Z" transform="translate(-164.44 -141.11)"/><path class="cls-18" d="M1645.28,1040.35c-1.64,13.24-4.61,26.46-4.7,39.7-.48,68.92-.23,137.84-.22,206.76,0,10.27,2,21.94-14.42,20.79l-14-14.39c-16.33-26.66-32.77-53.25-48.94-80-4.81-8-8.9-16.35-13.32-24.54,3.27-5.3,9.13-10.46,9.38-15.9,2.28-48.13,3.29-96.32,5.33-144.47.46-10.83,3.47-21.56,5.3-32.34Z" transform="translate(-164.44 -141.11)"/><path class="cls-22" d="M570.12,1083.27c-9.72,5.66-18.89,14.69-29.26,16.4-51.5,8.46-103.31,15-155,22.22q-51.09,7.14-102.18,14.32-1.83-7.08-3.67-14.14.23-31,.44-62c17.17-1.63,34.44-2.55,51.49-5,41.07-6,82.1-12.33,123-19.55,3.8-.67,6.33-8.54,9.45-13.06Z" transform="translate(-164.44 -141.11)"/><path class="cls-23" d="M278.24,1296.64c2.71,2.92,5.89,8.69,8.09,8.34q139.31-22.1,278.44-45.28c51.9-8.65,103.63-18.29,155.51-27.08,24-4.07,48.24-6.88,72.24-11,3.66-.63,6.64-5.2,9.93-8L850,1241c-7,3.23-13.67,8.21-21,9.39-33.33,5.35-66.83,9.65-100.27,14.31-23.31,3.25-46.71,5.91-69.9,9.82-51.87,8.74-103.51,18.86-155.46,27-49.6,7.74-99.6,12.93-149.12,21-8.49,1.4-15.5,11.85-23.19,18.12l-48,5Q280.65,1321.17,278.24,1296.64Z" transform="translate(-164.44 -141.11)"/><path class="cls-24" d="M930.47,1450.19c1.76,8.91,5,17.82,5,26.75.4,92.59.29,185.19.32,277.79l-71.49-38.63c1.58-11.6,4.38-23.18,4.52-34.8.54-44.17.72-88.35,0-132.52-.33-20.29-3.09-40.55-4.74-60.82Z" transform="translate(-164.44 -141.11)"/><path class="cls-25" d="M1535.63,636.38c3.17,13.59,8.78,27.13,9.07,40.78,1.09,50.69.82,101.43.18,152.14-.17,14-3.38,28-5.2,42L1459,823.06l-.21-146.13Z" transform="translate(-164.44 -141.11)"/><path class="cls-26" d="M502,694.6l66.73,38.23,43.79,31.3c-21.35-4.93-43.25-8.21-64-15.07-82.32-27.27-164.29-55.57-246.3-83.76-6.28-2.16-11.8-6.49-17.67-9.82q1.82-40.63,3.62-81.29l84.8,46,66.24,38Z" transform="translate(-164.44 -141.11)"/><path class="cls-25" d="M1569.68,996c-1.83,10.78-4.84,21.51-5.3,32.34-2,48.15-3.05,96.34-5.33,144.47-.25,5.44-6.11,10.6-9.38,15.9l-52.39-76.22q-18.79-28.68-37.57-57.37c4.66-9.49,12.22-18.63,13.45-28.56,3.46-27.75,4.3-55.83,6.17-83.78Z" transform="translate(-164.44 -141.11)"/><path class="cls-26" d="M1092,559.29l15.28-13.23,206.31-118.72q15.26-8.77,30.56-17.45c66.08-39,66.08-39,129.43,3.8-8.91,5.54-17.21,12.65-26.82,16.4q-165.42,64.43-331.29,127.68C1108.42,560.44,1099.81,558.88,1092,559.29Z" transform="translate(-164.44 -141.11)"/><path class="cls-27" d="M864.1,1488c1.65,20.27,4.41,40.53,4.74,60.82.73,44.17.55,88.35,0,132.52-.14,11.62-2.94,23.2-4.52,34.8l-66.77-36.94c0-41.24.6-82.48-.36-123.69-.19-8.19-6.24-16.24-9.58-24.36Z" transform="translate(-164.44 -141.11)"/><path class="cls-25" d="M502,694.6q-31.38-18.21-62.74-36.42c2-9.92,5.7-19.82,5.81-29.75.56-49.88.18-99.78.13-149.66q28.67-18.06,57.35-36.1c1.56,10.81,4.38,21.61,4.48,32.43.47,52.08.7,104.17,0,156.25C506.7,652.45,503.74,673.51,502,694.6Z" transform="translate(-164.44 -141.11)"/><path class="cls-27" d="M902.59,417.32c-.06-11.88-.18-23.76-.18-35.64q0-76.9,0-153.8l125.2-65.19c-1.73,7.91-2.09,16.46-5.41,23.63-17.38,37.49-35.51,74.63-53.38,111.89Z" transform="translate(-164.44 -141.11)"/><path class="cls-28" d="M464.35,1022.43c-3.12,4.52-5.65,12.39-9.45,13.06-40.86,7.22-81.89,13.59-123,19.55-17.05,2.48-34.32,3.4-51.49,5-16.46-61.23,20.42-85.52,70-101,28.93,16.72,57.78,33.58,86.84,50.07C446,1014.09,455.31,1018,464.35,1022.43Z" transform="translate(-164.44 -141.11)"/><path class="cls-29" d="M1458.76,676.93l.21,146.13-136.09-80.53Q1390.83,709.75,1458.76,676.93Z" transform="translate(-164.44 -141.11)"/><path class="cls-29" d="M1479.33,942.74c-1.87,28-2.71,56-6.17,83.78-1.23,9.93-8.79,19.07-13.45,28.56Q1401,966.37,1342.44,877.57c-3.35-5.11-4.71-11.52-7-17.33Z" transform="translate(-164.44 -141.11)"/><path class="cls-27" d="M445.19,478.77c.05,49.88.43,99.78-.13,149.66-.11,9.93-3.78,19.83-5.81,29.75q-33.13-19-66.24-38l.81-98.38Z" transform="translate(-164.44 -141.11)"/><path class="cls-30" d="M787.62,1531.11c3.34,8.12,9.39,16.17,9.58,24.36,1,41.21.39,82.45.36,123.69-34.35-11.64-58.89-28.51-63.2-70.71-4.51-44.18-8.71-43.87,30.17-66.54C771.84,1537.65,779.9,1534.68,787.62,1531.11Z" transform="translate(-164.44 -141.11)"/><path class="cls-30" d="M373.82,521.78,373,620.16l-84.81-46Z" transform="translate(-164.44 -141.11)"/><path class="cls-28" d="M280,1122.07q1.85,7.07,3.67,14.14-.1,35.65-.22,71.33l0,0c-1.28,0-2.56,0-3.84,0Z" transform="translate(-164.44 -141.11)"/><path class="cls-11" d="M279.59,1207.55c1.28,0,2.56,0,3.84,0q-1.89,7.08-3.77,14.16Q279.63,1214.64,279.59,1207.55Z" transform="translate(-164.44 -141.11)"/><path class="cls-27" d="M1035.43,159.75l-5.94,1.91Z" transform="translate(-164.44 -141.11)"/><path class="cls-29" d="M1335.41,860.21l-4.59-3.49Z" transform="translate(-164.44 -141.11)"/><path class="cls-23" d="M858.8,1245.8a6.28,6.28,0,0,1-3.61-2.6Q857,1244.49,858.8,1245.8Z" transform="translate(-164.44 -141.11)"/></svg>